<?xml version="1.0" encoding="UTF-8"?>
<svg xmlns="http://www.w3.org/2000/svg" xmlns:xlink="http://www.w3.org/1999/xlink" version="1.1" viewBox="0 0 1189.7 498.1">
  <!-- Generator: Adobe Illustrator 29.7.1, SVG Export Plug-In . SVG Version: 2.1.1 Build 8)  -->
  <defs>
    <style>
      .st0 {
        fill: #221f20;
      }

      .st1 {
        fill: #4f9b3f;
      }

      .st2 {
        display: none;
      }
    </style>
  </defs>
  <g id="Layer_2" class="st2">
    <g id="B0rukL.tif">
      <image width="1637" height="685" transform="scale(.7)" xlink:href="Logo-1.png"/>
    </g>
  </g>
  <g id="Layer_1">
    <g id="Layer_21" data-name="Layer_2">
      <g>
        <path class="st1" d="M33.8,27.6c-.6,12.9-.9,33.5-.9,61.7s.9,51.6,2.8,70.3c1.9,18.6,2.8,29.5,2.8,32.6s-1.3,6.3-4,9.4c-2.6,3.1-6,4.7-10.1,4.7s-7.5-1.6-10.1-4.7c-2.6-3.1-4-6.3-4-9.4s.9-14,2.8-32.6c1.9-18.6,2.8-36.9,2.8-55s-.4-44.3-1.2-78.8c-3.9-.2-7.4-1.3-10.3-3.4C1.5,20.4,0,17.5,0,13.8,0,4.6,6.2,0,18.5,0s20.4,2.5,31.3,7.6,22.6,14.4,35.3,27.9c12.6,13.5,23.5,30.4,32.5,50.6,2.9,6.5,8.6,19.5,17.1,39.1,8.4,19.6,14.8,33.7,19.1,42.3-.4-57.2-2.1-96.2-5-117-1-6.9-1.9-13.1-2.8-18.8-.9-5.7-1.3-10.8-1.3-15.4s1.4-8.5,4.3-11.6C151.8,1.6,155.3,0,159.3,0s7.3,1.6,9.8,4.7c2.5,3.1,3.8,7.8,3.8,14s-.5,17.5-1.5,34c-2,38.4-2.9,84.7-2.9,138.8,15.9,25.1,29.1,42.1,39.7,51.2,5.9,5.1,12,9.4,18.4,12.8,6.4,3.4,11.2,5.7,14.6,6.9,7.6,2.7,11.5,7.9,11.5,15.6s-1.5,6-4.4,8.5-6.7,3.8-11.2,3.8c-10.8,0-22.2-5.4-34.4-16.2-12.2-10.8-24.1-25.5-35.9-44.1-22-35.3-43.2-78.9-63.8-130.8C86.6,57.5,63.6,33.7,33.8,27.6Z"/>
        <path class="st1" d="M319.7,179.5c4.4,6,6.6,10.8,6.6,14.6s-1,6.7-2.9,9c-2,2.3-4.6,3.4-7.9,3.4-8,0-15.2-8.3-21.5-25l-2.4-6.5c-10,21-25,31.5-45,31.5s-18.3-3.2-24.8-9.6c-6.6-6.4-9.8-14.4-9.8-24,0-14.9,5.1-27.7,15.3-38.5s23.5-16.6,40-17.3c-3.9-6.9-8.3-12-13.1-15.4-4.8-3.4-9.2-5.4-13.1-6-3.9-.6-7.6-.9-11-1-3.4,0-6.1-.8-8.1-2.2-2-1.4-2.9-4.1-2.9-8.1s1.6-7.3,4.9-9.8c3.2-2.5,7.1-3.8,11.6-3.8,12.7,0,25.3,6.4,37.6,19.1,12.3,12.7,23.1,32.7,32.3,60l5.6,15.6c1.4,3.5,4.3,8.3,8.7,14.3v-.3ZM259.9,132.6c-7.1,0-13.4,2.4-19,7.1s-8.4,10.8-8.4,18.2,2.5,13.7,7.5,18.7,11,7.5,18.1,7.5,13.1-2.5,18.2-7.5,7.6-10.9,7.6-17.8-.9-9.5-2.6-13.7c-1.8-4.2-2.8-6.8-3.2-7.8-5.1-3.1-11.2-4.7-18.2-4.7Z"/>
        <path class="st1" d="M412.5,92.3c-1,0-13.2-.8-36.8-2.4,0,2.5-.4,12.3-1.2,29.1-.8,16.9-1.2,29.4-1.2,37.5s1.8,14.9,5.4,20.3c3.6,5.4,5.4,10.2,5.4,14.6s-1.5,7.9-4.4,10.7-6.3,4.3-10,4.3c-9.8,0-14.7-7.7-14.7-23.2l-1.2-59.7c0-12.2-.3-23-.9-32.6h-7.1c-2.7,0-5-.8-6.8-2.5s-2.6-4-2.6-6.9.9-5.2,2.6-6.9c1.8-1.7,4-2.5,6.8-2.5h6.2c-.4-10.2-.6-18-.6-23.4s1.3-9.7,4-12.9c2.6-3.2,5.8-4.9,9.6-4.9s6.8,1.5,9.1,4.6c2.4,3,3.5,8,3.5,14.8s-.3,14.4-.9,22.6l35.6-2.4c7.6,0,11.5,3.6,11.5,10.9s-3.8,10.9-11.5,10.9h.2Z"/>
        <path class="st1" d="M532.4,154.4l-2.9-66.1c0-5.3,1.3-9.6,4-12.8,2.6-3.2,5.8-4.9,9.6-4.9s6.8,1.5,9.1,4.6c2.4,3,3.5,7.2,3.5,12.3s-.6,12.5-1.8,21.9c-2.4,18.8-3.5,35.7-3.5,50.6s1.9,11.5,5.7,16.9,5.7,10.2,5.7,14.6-1.5,7.9-4.4,10.7-6.3,4.3-10,4.3c-9.8,0-14.7-7.7-14.7-23.2-9.2,15.5-20.8,23.2-34.7,23.2s-20-4-26.6-12.1c-6.6-8-11.1-17.8-13.7-29.4l-11.2-50.6c-1.2-5.7-3.8-10.7-7.8-15.1s-6-8.9-6-13.4,1.6-8.2,4.7-11,6.9-4.3,11.2-4.3c9.8,0,16.2,7.7,19.1,23.2l11.2,61.4c3.7,19.6,13,29.4,27.9,29.4s13.2-2.9,17.9-8.7,7.2-13,7.6-21.6h.1Z"/>
        <path class="st1" d="M621.5,135.5l2.4,53.2c0,5.3-1.3,9.6-4,12.8-2.6,3.2-5.8,4.9-9.6,4.9s-6.8-1.5-9.1-4.6c-2.4-3-3.5-7.2-3.5-12.5s.5-12.8,1.5-22.6c2-19.6,2.9-36.2,2.9-49.7s-1.8-11.5-5.4-16.9c-3.6-5.4-5.4-10.2-5.4-14.6s1.5-7.9,4.4-10.7c2.9-2.8,6.3-4.3,10-4.3,9.8,0,14.7,7.7,14.7,23.2v11.5c5.9-10.6,12.9-19,21.2-25.3,8.2-6.3,15.8-9.4,22.6-9.4s12.1,1.7,15.7,5.1c3.6,3.4,5.4,8,5.4,13.7s-1.4,10.4-4.1,14.3c-2.7,3.8-5.7,5.7-8.8,5.7s-5.5-.8-7.2-2.5-2.9-3.4-3.7-5.3-2.3-3.6-4.4-5.3c-2.2-1.7-4.9-2.5-8.2-2.5-5.7,0-11.4,3.7-17.1,11.2-5.7,7.5-9.1,17.6-10.3,30.6h0Z"/>
        <path class="st1" d="M761.2,146.1l-35-2.9c-3.3,0-6,.3-7.9.9,1.2,11.2,5.9,20.5,14.3,27.9,8.3,7.5,18.2,11.2,29.5,11.2s20.9-4,29.7-12.1c3.1-2.7,5.5-4.1,7.1-4.1s2.9.6,4.1,1.8c1.2,1.2,1.8,2.5,1.8,3.8,0,5.7-5.5,12.7-16.6,21.2-11.1,8.4-23.6,12.6-37.6,12.6s-26.2-5.7-36.5-17.1c-10.3-11.4-15.4-25.5-15.4-42.3s8.1-39.7,24.4-54.4c16.3-14.7,34.2-22,53.8-22s14.9,1.4,20.1,4.3c5.2,2.8,7.8,6.5,7.8,10.9s-1.3,8-4,10.7c-2.6,2.7-5.2,4.1-7.8,4.1s-6.9-1.2-13.1-3.5c-6.2-2.4-12.1-3.5-17.8-3.5-10.6,0-19.7,3.2-27.5,9.6-7.7,6.4-12.9,14.3-15.4,23.7l40.6-2.4c9,0,13.5,3.5,13.5,10.6s-4,11.2-12.1,11.2v-.2Z"/>
        <path class="st1" d="M830,51.2c-2,0-2.9-1.1-2.9-3.2s1.5-4.2,4.4-7.8,4.4-6.9,4.4-9.8-1.5-5.9-4.6-8.8c-3-2.9-4.6-6.1-4.6-9.4s1.3-6.2,3.8-8.5c2.5-2.4,6-3.5,10.3-3.5,7.4,0,11.2,4.3,11.2,12.8s-2.7,17.1-8.2,25.6-10.1,12.8-13.8,12.8v-.2Z"/>
        <path class="st1" d="M890.2,202c-4.5-2.9-6.8-6.6-6.8-11s1.3-7.9,4-10.6,5.3-4,7.9-4,7,1.2,13.1,3.5c6.1,2.4,12.4,3.5,19,3.5s13.2-1.7,19.8-5.1c6.7-3.4,10-7.6,10-12.6s-2.5-8.9-7.5-11.6c-5-2.7-11-4.9-18.1-6.6-7.1-1.7-14.1-3.6-21.2-5.7-7.1-2.2-13.1-5.4-18.1-9.8-5-4.4-7.5-9.8-7.5-16.3,0-10.6,6.8-20.7,20.3-30.4,13.5-9.7,28.4-14.6,44.7-14.6s13.9,1.4,18.1,4.3c4.2,2.8,6.3,6.5,6.3,11s-1.3,8.1-4,10.7c-2.6,2.6-5.3,4-7.9,4s-7-1.2-13.1-3.5c-6.1-2.4-12.4-3.5-19-3.5s-12.3,1.4-17.1,4.1-7.2,6.1-7.2,10,3.8,7.4,11.3,10.3,15.8,5.3,24.8,7.1c9,1.8,17.3,5.2,24.8,10.4s11.3,11.9,11.3,20.1c0,12.7-7.5,24.4-22.3,35-14.9,10.6-31,15.9-48.2,15.9s-13.1-1.5-17.6-4.4l.2-.2Z"/>
      </g>
      <g>
        <path class="st0" d="M310.6,305.5c-.9,0-1.6-.3-2.1-.8s-.8-1.2-.8-2.1v-62.4h-23.4c-.9,0-1.6-.3-2.1-.8s-.8-1.2-.8-2.1.3-1.6.8-2.1,1.2-.8,2.1-.8h52.6c.9,0,1.6.3,2.1.8s.8,1.2.8,2.1-.3,1.6-.8,2.1-1.2.8-2.1.8h-23.5v62.4c0,.8-.3,1.5-.8,2.1-.5.5-1.2.8-2.1.8h0Z"/>
        <path class="st0" d="M353.1,327.5c-4.8,0-8.4-1.2-10.7-3.5-2.3-2.3-3.4-5.9-3.4-10.8s1-2.9,2.9-2.9,2.9,1,2.9,2.9c0,3.3.6,5.5,1.8,6.7s3.4,1.8,6.6,1.8h19.1c3.2,0,5.4-.6,6.6-1.8,1.2-1.2,1.8-3.4,1.8-6.7v-15.1c-2.1,2.8-4.7,4.7-7.9,5.8-3.2,1.1-6.8,1.6-11.1,1.6h-3.1c-6.8,0-11.7-1.6-14.8-4.7-3.1-3.1-4.7-8-4.7-14.7v-29.9c0-1.9,1-2.9,2.9-2.9s2.9,1,2.9,2.9v29.9c0,5.1,1,8.6,3,10.6s5.6,3,10.7,3h3.1c6.4,0,11.2-1.1,14.3-3.4,3.1-2.3,4.7-5.7,4.7-10.2v-29.9c0-1.9,1-2.9,2.9-2.9s2.9,1,2.9,2.9v57c0,4.9-1.1,8.5-3.4,10.8s-5.9,3.5-10.7,3.5h-19.3Z"/>
        <path class="st0" d="M409.8,327.5c-1.9,0-2.9-1-2.9-2.9v-68.3c0-1.9,1-2.9,2.9-2.9s2.9,1,2.9,2.9v4.9c1.7-2.6,4-4.5,7.1-5.8s7-2,11.8-2h4.2c6.9,0,11.9,1.6,15.1,4.8,3.2,3.2,4.8,8.2,4.8,15.1v12.3c0,6.9-1.6,11.9-4.8,15.1-3.2,3.2-8.2,4.8-15.1,4.8h-23.1v19.1c0,1.9-1,2.9-2.9,2.9h0ZM412.7,299.7h23.1c5.2,0,8.9-1,11-3.1s3.1-5.7,3.1-11v-12.3c0-5.2-1-8.9-3.1-11s-5.7-3.1-11-3.1h-4.2c-5.9,0-10.4.9-13.5,2.8-3.1,1.8-4.9,4.7-5.4,8.5v29.2Z"/>
        <path class="st0" d="M479.1,281.7v4c0,5.2,1,8.8,3.1,10.9s5.7,3.1,11,3.1h9c4.6,0,8-.6,10.1-1.8,2.1-1.2,3.3-3.3,3.7-6.2.2-.9.5-1.6,1-2.1s1.2-.7,2.1-.7,1.7.3,2.2.8.7,1.3.6,2.2c-.5,4.6-2.3,8-5.6,10.2s-7.9,3.3-14.1,3.3h-9c-6.9,0-11.9-1.6-15.1-4.8-3.2-3.2-4.8-8.2-4.8-15v-12.4c0-6.9,1.6-12,4.8-15.2,3.2-3.2,8.2-4.7,15.1-4.7h9c6.9,0,11.9,1.6,15.1,4.8,3.2,3.2,4.8,8.2,4.8,15.1v5.5c0,1.9-1,2.9-2.9,2.9h-40.1,0ZM493.2,259.2c-5.3,0-8.9.9-11,3s-3.1,5.8-3.1,11v2.6h37.2v-2.6c0-5.2-1-8.9-3.1-11-2.1-2.1-5.7-3.1-11-3.1h-9Z"/>
        <path class="st0" d="M571.7,305.5c-1.9,0-2.9-1-2.9-2.9v-65.1c0-1.9,1-2.9,2.9-2.9h39.7c.9,0,1.6.2,2.1.7s.7,1.2.7,2.2c0,1.9-1,2.9-2.9,2.9h-36.8v26.4h25.1c1.9,0,2.9,1,2.9,2.9s-1,2.9-2.9,2.9h-25.1v30.1c0,1.9-1,2.9-2.9,2.9h.1Z"/>
        <path class="st0" d="M635.2,305.5c-6.9,0-11.9-1.6-15.1-4.8-3.2-3.2-4.8-8.2-4.8-15v-12.4c0-6.9,1.6-12,4.8-15.2,3.2-3.2,8.2-4.7,15.1-4.7h9c6.9,0,11.9,1.6,15.1,4.8,3.2,3.2,4.8,8.2,4.8,15.1v12.3c0,6.9-1.6,11.9-4.8,15.1s-8.2,4.8-15.1,4.8h-9ZM621.1,285.7c0,5.2,1,8.8,3.1,10.9s5.7,3.1,11,3.1h9c5.2,0,8.9-1,11-3.1s3.1-5.7,3.1-11v-12.3c0-5.2-1-8.9-3.1-11s-5.7-3.1-11-3.1h-9c-3.5,0-6.3.4-8.4,1.3-2.1.9-3.5,2.3-4.4,4.4s-1.3,4.8-1.3,8.4v12.4h0Z"/>
        <path class="st0" d="M726.9,253.4c1.9,0,2.9,1,2.9,2.9v46.3c0,1.9-1,2.9-2.9,2.9s-2.9-1-2.9-2.9v-5.2c-3.5,5.4-9.8,8.1-18.9,8.1h-3.1c-6.9,0-11.9-1.6-15.1-4.8-3.2-3.2-4.8-8.2-4.8-15.1v-29.3c0-1.9,1-2.9,2.9-2.9s2.9,1,2.9,2.9v29.3c0,5.2,1,8.9,3.1,11s5.7,3.1,10.9,3.1h3.1c5.7,0,10.2-.9,13.4-2.8,3.3-1.8,5.1-4.6,5.5-8.4v-32.3c0-1.9,1-2.9,2.9-2.9h0Z"/>
        <path class="st0" d="M753.3,305.5c-1.9,0-2.9-1-2.9-2.9v-46.3c0-1.9,1-2.9,2.9-2.9s2.9,1,2.9,2.9v5.3c3.5-5.4,9.8-8.1,18.9-8.1h3.1c6.9,0,11.9,1.6,15.1,4.8,3.2,3.2,4.8,8.2,4.8,15.1v29.3c0,1.9-1,2.9-2.9,2.9s-2.9-1-2.9-2.9v-29.3c0-5.2-1-8.9-3.1-11s-5.7-3.1-10.9-3.1h-3.1c-5.7,0-10.2.9-13.4,2.7-3.3,1.8-5.1,4.6-5.5,8.4v32.2c0,1.9-1,2.9-2.9,2.9h0Z"/>
        <path class="st0" d="M836,305.5c-6.9,0-11.9-1.6-15.1-4.8-3.2-3.2-4.8-8.2-4.8-15.1v-12.3c0-6.9,1.6-11.9,4.8-15.1,3.2-3.2,8.2-4.8,15.1-4.8h23.1v-21.4c0-1.9,1-2.9,2.9-2.9s2.9,1,2.9,2.9v70.5c0,1.9-1,2.9-2.9,2.9s-2.9-1-2.9-2.9v-4.7c-1.6,2.5-3.9,4.4-6.9,5.7-3,1.3-7,1.9-11.9,1.9h-4.3ZM836,299.7h4.2c5.7,0,10.3-.9,13.7-2.7,3.4-1.8,5.1-4.5,5.1-8.2v-29.6h-23.1c-5.2,0-8.9,1-11,3.1s-3.1,5.7-3.1,10.9v12.3c0,5.2,1,8.9,3.1,11s5.7,3.1,11,3.1h0Z"/>
        <path class="st0" d="M887.4,305.5c-1.9,0-2.9-1-2.9-2.9v-46.3c0-1.9,1-2.9,2.9-2.9s2.9,1,2.9,2.9v8.5c1.9-3.7,4.7-6.5,8.3-8.4s7.9-2.9,12.9-2.9,2.9,1,2.9,2.9-1,2.9-2.9,2.9c-6.5,0-11.6,1.5-15.2,4.4-3.6,3-5.6,7.2-5.9,12.6v26.3c0,1.9-1,2.9-2.9,2.9h0Z"/>
        <path class="st0" d="M939.1,327.5c-4.8,0-8.4-1.2-10.7-3.5s-3.4-5.9-3.4-10.8,1-2.9,2.9-2.9,2.9,1,2.9,2.9c0,3.3.6,5.5,1.8,6.7s3.4,1.8,6.6,1.8h19.1c3.2,0,5.4-.6,6.6-1.8,1.2-1.2,1.8-3.4,1.8-6.7v-15.1c-2.1,2.8-4.7,4.7-7.9,5.8-3.2,1.1-6.8,1.6-11.1,1.6h-3.1c-6.8,0-11.7-1.6-14.8-4.7s-4.7-8-4.7-14.7v-29.9c0-1.9,1-2.9,2.9-2.9s2.9,1,2.9,2.9v29.9c0,5.1,1,8.6,3,10.6s5.6,3,10.7,3h3.1c6.4,0,11.2-1.1,14.3-3.4s4.7-5.7,4.7-10.2v-29.9c0-1.9,1-2.9,2.9-2.9s2.9,1,2.9,2.9v57c0,4.9-1.1,8.5-3.4,10.8-2.3,2.3-5.9,3.5-10.7,3.5h-19.3Z"/>
      </g>
    </g>
    <g>
      <path d="M23.6,476.1c-8,0-14-1.9-17.8-5.8-3.8-3.9-5.8-9.8-5.8-17.9v-43.5c0-1.5.4-2.6,1.1-3.3.7-.7,1.8-1.1,3.3-1.1s2.6.4,3.3,1.1c.7.7,1.1,1.8,1.1,3.3v43.5c0,3.8.4,6.7,1.3,8.9.9,2.1,2.4,3.7,4.6,4.6,2.1.9,5.1,1.3,8.8,1.3h12.6c3.8,0,6.7-.4,8.8-1.3,2.1-.9,3.7-2.4,4.6-4.6.9-2.1,1.3-5.1,1.3-8.9v-43.5c0-1.5.4-2.6,1.1-3.3.7-.7,1.8-1.1,3.3-1.1s2.6.4,3.3,1.1c.7.7,1.1,1.8,1.1,3.3v43.5c0,8.1-1.9,14-5.7,17.9-3.8,3.9-9.8,5.8-17.8,5.8h-12.6Z"/>
      <path d="M102.3,476.1c-1.5,0-2.6-.4-3.3-1.1-.7-.7-1.1-1.8-1.1-3.3v-58.2h-20.4c-1.5,0-2.6-.4-3.3-1.1-.7-.7-1.1-1.8-1.1-3.3s.4-2.6,1.1-3.3c.7-.7,1.8-1.1,3.3-1.1h49.7c1.5,0,2.6.4,3.3,1.1.7.7,1.1,1.8,1.1,3.3s-.4,2.6-1.1,3.3c-.7.7-1.8,1.1-3.3,1.1h-20.4v58.2c0,1.4-.4,2.5-1.1,3.3-.8.8-1.9,1.2-3.3,1.2Z"/>
      <path d="M174.8,475.6c-2.8-1.1-3.6-3-2.5-5.8l25-61.9c1.1-2.3,2.7-3.5,4.9-3.5h.2c2.3.1,3.8,1.3,4.6,3.5l25.5,61.9c1.1,2.8.3,4.7-2.4,5.8-2.8,1.1-4.7.3-5.8-2.4l-5.7-13.8h-32.8l-5.4,13.8c-1.1,2.7-3,3.6-5.7,2.4ZM189.3,450.5h25.7l-13.1-32-12.6,32Z"/>
      <path d="M251.4,476.1c-2.9,0-4.4-1.5-4.4-4.4v-44.7c0-3,1.5-4.4,4.4-4.4s4.4,1.5,4.4,4.4v4.1c2.1-2.8,4.7-4.9,7.9-6.4,3.2-1.4,6.9-2.2,11-2.2s4.4,1.5,4.4,4.4-1.5,4.4-4.4,4.4c-6.1,0-10.7,1.1-13.9,3.4-3.2,2.3-4.9,5.2-5.1,8.9v27.9c0,3-1.5,4.4-4.4,4.4Z"/>
      <path d="M314.2,476.1c-6.9,0-12.1-1.7-15.4-5-3.3-3.3-4.9-8.4-4.9-15.3v-24.4h-5.2c-2.9,0-4.4-1.5-4.4-4.4s1.5-4.4,4.4-4.4h5.2v-7.7c0-3,1.5-4.4,4.4-4.4s4.4,1.5,4.4,4.4v7.7h12.1c2.9,0,4.4,1.5,4.4,4.4s-1.5,4.4-4.4,4.4h-12.1v24.4c0,4.5.8,7.5,2.4,9.1,1.6,1.6,4.6,2.4,9,2.4s2.4.4,3.2,1.1c.8.7,1.2,1.8,1.2,3.4,0,3-1.5,4.4-4.4,4.4Z"/>
      <path d="M372.8,476.1c-2.9,0-4.4-1.5-4.4-4.4v-62.8c0-3,1.5-4.4,4.4-4.4h27.5c5.6,0,9.9,1.5,12.9,4.4,3,3,4.5,7.2,4.5,12.7v2.9c0,4.8-1.5,8.4-4.5,11,5.6,3.1,8.4,8.9,8.4,17.2v3.6c0,6.5-1.7,11.4-5.1,14.8-3.4,3.4-8.3,5.1-14.8,5.1h-28.8ZM377.2,432.8h24.9c2.6,0,4.3-.8,5.2-2.4.9-1.6,1.4-3.6,1.4-6.1v-2.9c0-3.1-.6-5.2-1.9-6.4-1.3-1.2-3.5-1.8-6.6-1.8h-23v19.5ZM377.2,467.2h24.4c4,0,6.8-.9,8.5-2.6s2.6-4.5,2.6-8.4v-3.6c0-3.9-.8-6.7-2.5-8.4s-4.5-2.5-8.6-2.5h-24.4v25.5Z"/>
      <path d="M482.3,422.5c2.9,0,4.4,1.5,4.4,4.4v44.7c0,3-1.5,4.4-4.4,4.4s-4.4-1.5-4.4-4.4v-1.7c-3.7,4.1-9.2,6.2-16.4,6.2h-2.9c-7,0-12.2-1.7-15.5-5.1s-5.1-8.6-5.1-15.6v-28.4c0-3,1.5-4.4,4.4-4.4s4.4,1.5,4.4,4.4v28.4c0,4.6.8,7.7,2.5,9.4,1.7,1.7,4.8,2.5,9.3,2.5h2.9c4.2,0,7.9-.5,11-1.5,3.1-1,4.9-2.5,5.4-4.5v-34.2c0-3,1.5-4.4,4.4-4.4Z"/>
      <path d="M511.3,413.8c-3.3,0-5-1.7-5-5.1v-3.1c0-3.3,1.7-5,5-5h3.1c3.2,0,4.8,1.7,4.8,5v3.1c0,3.4-1.6,5.1-4.8,5.1h-3.1ZM512.8,476.1c-2.9,0-4.4-1.5-4.4-4.4v-44.7c0-3,1.5-4.4,4.4-4.4s4.4,1.5,4.4,4.4v44.7c0,3-1.5,4.4-4.4,4.4Z"/>
      <path d="M554.8,476.1c-5.4,0-9.4-1.3-12-4-2.6-2.7-3.9-6.7-3.9-12.1v-53.9c0-3,1.5-4.4,4.4-4.4s4.4,1.5,4.4,4.4v53.9c0,2.9.5,4.8,1.4,5.7s2.8,1.5,5.7,1.5,4.5,1.5,4.5,4.4c.1,3-1.4,4.4-4.5,4.4Z"/>
      <path d="M590.8,476.1c-7,0-12.2-1.7-15.5-5.1-3.4-3.4-5.1-8.6-5.1-15.6v-12.2c0-7,1.7-12.3,5.1-15.6,3.4-3.4,8.6-5.1,15.5-5.1h20.4v-16.4c0-3,1.5-4.4,4.4-4.4s4.4,1.5,4.4,4.4v65.5c0,3-1.5,4.4-4.4,4.4s-4.4-1.5-4.4-4.4v-.7c-1.6,1.7-3.8,3-6.5,3.9-2.7.9-6,1.3-9.9,1.3h-4ZM590.8,467.2h4c4.6,0,8.5-.6,11.7-1.8,3.2-1.2,4.7-3,4.7-5.5v-28.5h-20.4c-4.6,0-7.7.8-9.3,2.5-1.6,1.7-2.5,4.8-2.5,9.3v12.2c0,4.6.8,7.7,2.5,9.4,1.7,1.7,4.8,2.5,9.3,2.5Z"/>
      <path d="M643.6,413.8c-3.3,0-5-1.7-5-5.1v-3.1c0-3.3,1.7-5,5-5h3.1c3.2,0,4.8,1.7,4.8,5v3.1c0,3.4-1.6,5.1-4.8,5.1h-3.1ZM645.1,476.1c-2.9,0-4.4-1.5-4.4-4.4v-44.7c0-3,1.5-4.4,4.4-4.4s4.4,1.5,4.4,4.4v44.7c0,3-1.5,4.4-4.4,4.4Z"/>
      <path d="M675.6,476.1c-2.9,0-4.4-1.5-4.4-4.4v-44.7c0-3,1.5-4.4,4.4-4.4s4.4,1.5,4.4,4.4v1.7c3.7-4.1,9.2-6.2,16.4-6.2h2.9c7,0,12.2,1.7,15.6,5.1,3.4,3.4,5.1,8.6,5.1,15.6v28.4c0,3-1.5,4.4-4.4,4.4s-4.4-1.5-4.4-4.4v-28.4c0-4.6-.8-7.7-2.5-9.4-1.7-1.6-4.8-2.5-9.3-2.5h-2.9c-4.2,0-7.9.5-11,1.5-3.1,1-4.9,2.5-5.4,4.6v34.2c0,3-1.5,4.4-4.4,4.4Z"/>
      <path d="M753.2,497.2c-4.2,0-7.6-.9-10-2.6-2.4-1.7-4-4.4-4.7-7.9-.2-1.5,0-2.6.8-3.5s1.9-1.3,3.5-1.3,2.3.4,2.9,1.1c.6.7,1.1,1.8,1.6,3.2.4.8,1.1,1.3,2,1.6.9.3,2.2.4,3.9.4h19.6c2.6,0,4.3-.4,5.1-1.2.8-.8,1.2-2.5,1.2-5.1v-12.3c-1.9,2.1-4.2,3.7-7,4.8-2.8,1.1-5.9,1.6-9.4,1.6h-4c-7,0-12.2-1.7-15.5-5.1-3.4-3.4-5.1-8.6-5.1-15.5v-12.3c0-7.1,1.7-12.3,5-15.7,3.3-3.4,8.5-5,15.6-5h8.6c2.5,0,4.7.4,6.7,1.1,2,.7,3.7,1.9,5.1,3.4h0c0-3,1.5-4.5,4.4-4.5s4.4,1.5,4.4,4.4v55.1c0,5.2-1.2,9-3.7,11.5s-6.3,3.7-11.4,3.7h-19.6ZM758.7,467.2h4c4.6,0,8.5-.6,11.7-1.7,3.2-1.2,4.7-3,4.7-5.5v-21.1c0-2.9-1-4.8-3.1-5.8-2.1-1-5-1.6-8.7-1.6h-8.6c-4.5,0-7.6.8-9.3,2.4-1.7,1.6-2.5,4.8-2.5,9.4v12.3c0,4.5.8,7.5,2.5,9.2,1.6,1.7,4.8,2.5,9.3,2.5Z"/>
      <path d="M845.8,476.1c-2.9,0-4.4-1.5-4.4-4.4v-62.8c0-3,1.5-4.4,4.4-4.4h37.8c2.9,0,4.4,1.5,4.4,4.4s-1.5,4.4-4.4,4.4h-33.4v22.2h20.9c2.9,0,4.4,1.5,4.4,4.4s-1.5,4.4-4.4,4.4h-20.9v22.8h33.4c2.9,0,4.4,1.5,4.4,4.4s-1.5,4.4-4.4,4.4h-37.8Z"/>
      <path d="M919.6,476.1c-7,0-12.2-1.7-15.5-5.1-3.4-3.4-5.1-8.6-5.1-15.6v-12.2c0-7,1.7-12.3,5.1-15.6,3.4-3.4,8.6-5.1,15.5-5.1h20.4v-16.4c0-3,1.5-4.4,4.4-4.4s4.4,1.5,4.4,4.4v65.5c0,3-1.5,4.4-4.4,4.4s-4.4-1.5-4.4-4.4v-.7c-1.6,1.7-3.8,3-6.5,3.9-2.7.9-6,1.3-9.9,1.3h-4ZM919.6,467.2h4c4.6,0,8.5-.6,11.7-1.8,3.2-1.2,4.7-3,4.7-5.5v-28.5h-20.4c-4.6,0-7.7.8-9.3,2.5-1.6,1.7-2.5,4.8-2.5,9.3v12.2c0,4.6.8,7.7,2.5,9.4,1.7,1.7,4.8,2.5,9.3,2.5Z"/>
      <path d="M972.4,413.8c-3.3,0-5-1.7-5-5.1v-3.1c0-3.3,1.7-5,5-5h3.1c3.2,0,4.8,1.7,4.8,5v3.1c0,3.4-1.6,5.1-4.8,5.1h-3.1ZM973.9,476.1c-2.9,0-4.4-1.5-4.4-4.4v-44.7c0-3,1.5-4.4,4.4-4.4s4.4,1.5,4.4,4.4v44.7c0,3-1.5,4.4-4.4,4.4Z"/>
      <path d="M1022.5,476.1c-6.9,0-12.1-1.7-15.4-5-3.3-3.3-4.9-8.4-4.9-15.3v-24.4h-5.2c-2.9,0-4.4-1.5-4.4-4.4s1.5-4.4,4.4-4.4h5.2v-7.7c0-3,1.5-4.4,4.4-4.4s4.4,1.5,4.4,4.4v7.7h12.1c2.9,0,4.4,1.5,4.4,4.4s-1.5,4.4-4.4,4.4h-12.1v24.4c0,4.5.8,7.5,2.4,9.1,1.6,1.6,4.6,2.4,9,2.4s2.4.4,3.2,1.1c.8.7,1.2,1.8,1.2,3.4,0,3-1.5,4.4-4.4,4.4Z"/>
      <path d="M1046.8,413.8c-3.3,0-5-1.7-5-5.1v-3.1c0-3.3,1.7-5,5-5h3.1c3.2,0,4.8,1.7,4.8,5v3.1c0,3.4-1.6,5.1-4.8,5.1h-3.1ZM1048.3,476.1c-2.9,0-4.4-1.5-4.4-4.4v-44.7c0-3,1.5-4.4,4.4-4.4s4.4,1.5,4.4,4.4v44.7c0,3-1.5,4.4-4.4,4.4Z"/>
      <path d="M1092.4,476.1c-7,0-12.2-1.7-15.5-5.1-3.4-3.4-5.1-8.6-5.1-15.5v-12.3c0-7.1,1.7-12.3,5.1-15.7,3.4-3.4,8.6-5,15.5-5h8.6c7,0,12.2,1.7,15.6,5.1,3.4,3.4,5,8.6,5,15.6v12.2c0,7-1.7,12.2-5,15.6-3.4,3.4-8.6,5.1-15.6,5.1h-8.6ZM1080.7,455.5c0,4.5.8,7.6,2.5,9.3,1.6,1.6,4.8,2.5,9.3,2.5h8.6c4.6,0,7.7-.8,9.3-2.5,1.6-1.7,2.4-4.8,2.4-9.4v-12.2c0-4.6-.8-7.7-2.4-9.4-1.6-1.6-4.7-2.5-9.3-2.5h-8.6c-3.1,0-5.4.3-7.1,1-1.7.7-2.9,1.9-3.6,3.6-.7,1.7-1.1,4.1-1.1,7.2v12.3Z"/>
      <path d="M1145.3,476.1c-2.9,0-4.4-1.5-4.4-4.4v-44.7c0-3,1.5-4.4,4.4-4.4s4.4,1.5,4.4,4.4v1.7c3.7-4.1,9.2-6.2,16.4-6.2h2.9c7,0,12.2,1.7,15.6,5.1,3.4,3.4,5.1,8.6,5.1,15.6v28.4c0,3-1.5,4.4-4.4,4.4s-4.4-1.5-4.4-4.4v-28.4c0-4.6-.8-7.7-2.5-9.4-1.7-1.6-4.8-2.5-9.3-2.5h-2.9c-4.2,0-7.9.5-11,1.5-3.1,1-4.9,2.5-5.4,4.6v34.2c0,3-1.5,4.4-4.4,4.4Z"/>
    </g>
  </g>
</svg>